<svg xmlns="http://www.w3.org/2000/svg" viewBox="0 0 426.22 80.06"><defs><style>.cls-1{fill:#0074ff;}.cls-2{fill:#2760ff;}.cls-3{fill:#004fe1;}</style></defs><title>Asset 1</title><g id="Layer_2" data-name="Layer 2"><g id="Layer_1-2" data-name="Layer 1"><g id="_Group_" data-name="&lt;Group&gt;"><g id="_Group_2" data-name="&lt;Group&gt;"><path class="cls-1" d="M128.74,19.08a23.3,23.3,0,0,1-3.41,6.45Q117.69,37,110,48.58q-3.83,5.76-7.65,11.51c-2.57,3.89-5,7.91-7.74,11.68,0,0,0,0,0,0h0s-.06.1-.08.13a.13.13,0,0,1,0-.07A16.22,16.22,0,0,1,85,79.54a15.05,15.05,0,0,1-11.2-1.36c-3.94-2.17-6-6-8.29-9.67-2.8-4.4-5.56-8.82-8.39-13.2s-5.64-8.59-8.24-13c-.92,1.31-1.84,2.63-2.76,4-3.78,5.49-7.6,11-11.41,16.44q-2.83,4.09-5.67,8.17c-2.05,3-4,5.71-7.28,7.39A15.18,15.18,0,0,1,5,76.15,15.15,15.15,0,0,1,2,57.4c1.64-2.88,3.79-5.55,5.67-8.27L13.3,41,24.71,24.52,36.13,8.07c2-2.9,4.16-5.34,7.47-6.74A15,15,0,0,1,60.69,5.17a38.49,38.49,0,0,1,3.42,5c1.15,1.78,2.27,3.59,3.41,5.38,4.63,7.28,9.28,14.55,13.89,21.84,2.78-4.43,5.78-8.73,8.67-13.08l8.63-13a66.75,66.75,0,0,1,4.09-6,15,15,0,0,1,26,13.72Z"/></g></g><g id="_Group_3" data-name="&lt;Group&gt;"><g id="_Group_4" data-name="&lt;Group&gt;"><path class="cls-2" d="M128.74,19.08a23.3,23.3,0,0,1-3.41,6.45Q117.69,37,110,48.58q-3.83,5.76-7.65,11.51c-2.57,3.89-5,7.91-7.74,11.68,0,0,0,0,0,0h0s-.06.1-.08.13a.13.13,0,0,1,0-.07A16.22,16.22,0,0,1,85,79.54a15.05,15.05,0,0,1-11.2-1.36c-3.94-2.17-6-6-8.29-9.67-2.8-4.4-5.56-8.82-8.39-13.2s-5.64-8.59-8.24-13c-.92,1.31-1.84,2.63-2.76,4-3.78,5.49-7.6,11-11.41,16.44q-2.83,4.09-5.67,8.17c-2.05,3-4,5.71-7.28,7.39A15.18,15.18,0,0,1,5,76.15L43.69,18.8a6,6,0,0,1,9.89-.13L77,51.59a6,6,0,0,0,9.88-.11l33.93-50a15,15,0,0,1,7.94,17.6Z"/></g></g><g id="_Group_5" data-name="&lt;Group&gt;"><g id="_Group_6" data-name="&lt;Group&gt;"><path class="cls-3" d="M37.59,58.64,48.92,42.32,38.76,25.76S42.85,45.89,37.59,58.64Z"/></g></g><path class="cls-1" d="M164.12,66.44l-18.65-25.1v25.1h-5.9v-35h5.8l18.75,25.15V31.44h5.8v35Z"/><path class="cls-1" d="M184,32.24a3.35,3.35,0,1,1-3.35-3.5A3.31,3.31,0,0,1,184,32.24Zm-6.2,34.2V39.84h5.7v26.6Z"/><path class="cls-1" d="M207,63.19c-1.9,2.35-5,3.5-8.8,3.5-5.75,0-9.35-3.55-9.35-8.25,0-4.85,3.65-8,10.05-8h8.05v-.8c0-3.35-2.15-5.35-6.35-5.35a14,14,0,0,0-7.85,2.7l-2.35-4c3.7-2.2,6.4-3.35,11.45-3.35,6.85,0,10.7,3.5,10.75,9.35l0,17.45H207Zm0-6.1V54.64h-7.2c-3.75,0-5.5,1-5.5,3.55s2,4,5.15,4C203.47,62.14,206.62,60,206.92,57.09Z"/><path class="cls-1" d="M243.32,63.84c0,7.65-5.45,12.45-13.8,12.45a19.35,19.35,0,0,1-11.05-3.5l2.45-4.15a13.44,13.44,0,0,0,8.35,2.9c5,0,8.35-3,8.35-7.55V60.64c-1.8,2.9-4.8,4.5-8.8,4.5-7.2,0-12-5.2-12-12.85s4.75-12.6,11.8-12.65c4.1,0,7.15,1.6,9,4.5v-4.3h5.7Zm-5.7-11.4c0-4.8-3.15-8.15-7.65-8.15s-7.7,3.4-7.75,8.15,3.15,8.2,7.75,8.2S237.62,57.24,237.62,52.44Z"/><path class="cls-1" d="M266.27,63.19c-1.9,2.35-5,3.5-8.8,3.5-5.75,0-9.35-3.55-9.35-8.25,0-4.85,3.65-8,10.05-8h8.05v-.8c0-3.35-2.15-5.35-6.35-5.35A14,14,0,0,0,252,47l-2.35-4c3.7-2.2,6.4-3.35,11.45-3.35,6.85,0,10.7,3.5,10.75,9.35l0,17.45h-5.65Zm0-6.1V54.64H259c-3.75,0-5.5,1-5.5,3.55s2,4,5.15,4C262.77,62.14,265.92,60,266.22,57.09Z"/><path class="cls-1" d="M304.37,49.89V66.44h-5.75v-15c0-4-2.4-6.45-6.4-6.45-4.75,0-7.6,3.6-7.6,8.3v13.1h-5.75V29.34h5.75V45c1.9-3.75,5.3-5.4,9.85-5.4C300.67,39.64,304.37,43.54,304.37,49.89Z"/><path class="cls-1" d="M336.32,53.14c0,8-5.65,13.5-13.85,13.5s-13.9-5.5-13.9-13.5,5.65-13.5,13.9-13.5S336.32,45.09,336.32,53.14Zm-22,0c0,5.15,3.35,8.65,8.15,8.65s8.1-3.5,8.1-8.65-3.35-8.6-8.1-8.6S314.32,48.09,314.32,53.19Z"/><path class="cls-1" d="M358.57,42.29l-2.1,4.25a15.64,15.64,0,0,0-7.65-2.35c-2.25,0-3.9.75-3.9,2.65,0,4.9,14.15,2.25,14.1,11.9,0,5.45-4.85,7.9-10.2,7.9a16.46,16.46,0,0,1-10.7-3.7l2.05-4.1a14.49,14.49,0,0,0,8.9,3.3c2.45,0,4.35-.85,4.35-2.85,0-5.45-14-2.4-14-12,0-5.4,4.7-7.7,9.8-7.7A16.81,16.81,0,0,1,358.57,42.29Z"/><path class="cls-1" d="M378.87,64.74a12.77,12.77,0,0,1-6.55,2c-4,0-7.45-2.3-7.45-7.75V45.14h-3.75v-4.3h3.75v-7.3h5.7v7.3h7.85v4.3h-7.85V57.89c0,2.75,1,3.6,2.85,3.6a9.29,9.29,0,0,0,4-1.15Z"/><path class="cls-1" d="M406.27,55.34h-20.1A8.1,8.1,0,0,0,394.42,62a10.34,10.34,0,0,0,7.5-3.1l3,3.25a14.48,14.48,0,0,1-11,4.5c-8.2,0-13.6-5.45-13.6-13.45s5.55-13.5,13.45-13.55C403.17,39.64,407,45.74,406.27,55.34Zm-5-4.2c-.2-4.3-3-6.9-7.4-6.9-4.2,0-7.15,2.65-7.8,6.9Z"/><path class="cls-1" d="M417,45.14a9.67,9.67,0,0,1,9.2-5.5v5.5c-5.35-.3-8.75,2.85-9.2,7.4v13.9h-5.75V39.84H417Z"/></g></g></svg>